Coordinates
version=1
nRows=8
nColumns=63
inDegrees=yes

Units are S.I. units (second, meters, Newtons, ...)
If the header above contains a line with 'inDegrees', this indicates whether rotational values are in degrees (yes) or radians (no).

endheader
time	pelvis_tilt	pelvis_list	pelvis_rotation	pelvis_tx	pelvis_ty	pelvis_tz	hip_flexion_r	hip_adduction_r	hip_rotation_r	knee_angle_r	knee_angle_r_beta	ankle_angle_r	subtalar_angle_r	mtp_angle_r	hip_flexion_l	hip_adduction_l	hip_rotation_l	knee_angle_l	knee_angle_l_beta	ankle_angle_l	subtalar_angle_l	mtp_angle_l	L5_S1_Flex_Ext	L5_S1_Lat_Bending	L5_S1_axial_rotation	L4_L5_Flex_Ext	L4_L5_Lat_Bending	L4_L5_axial_rotation	L3_L4_Flex_Ext	L3_L4_Lat_Bending	L3_L4_axial_rotation	L2_L3_Flex_Ext	L2_L3_Lat_Bending	L2_L3_axial_rotation	L1_L2_Flex_Ext	L1_L2_Lat_Bending	L1_L2_axial_rotation	L1_T12_Flex_Ext	L1_T12_Lat_Bending	L1_T12_axial_rotation	Abs_r3	Abs_r2	Abs_r1	Abs_t1	Abs_t2	neck_flexion	neck_bending	neck_rotation	arm_flex_r	arm_add_r	arm_rot_r	elbow_flex_r	pro_sup_r	wrist_flex_r	wrist_dev_r	arm_flex_l	arm_add_l	arm_rot_l	elbow_flex_l	pro_sup_l	wrist_flex_l	wrist_dev_l
0.000000	-2.549396	-3.352589	93.068730	0.201708	0.696577	0.913154	3.203446	-3.366858	-8.119769	5.373469	0.093785	20.167789	11.227102	0.000000	6.919108	0.745291	-10.305244	7.233972	0.126257	30.356322	14.144499	0.000000	0.324431	-0.598588	2.050983	0.602501	-0.796122	2.179169	0.533008	-1.455406	2.179169	0.370792	-1.455406	1.794610	0.301267	-1.220640	1.666424	0.185380	-0.927212	1.538237	2.317378	-6.771343	11.406951	0.000000	0.000000	28.003932	-2.143761	-15.965988	8.836839	-7.666874	54.872510	38.711068	40.360287	2.889701	2.580316	24.004092	-7.875537	92.869305	39.403016	61.242357	2.688096	-6.515927
0.020408	-2.163364	-3.200627	92.281650	0.202522	0.697119	0.911341	2.856016	-2.800481	-3.965542	4.475395	0.078110	19.908102	7.813106	0.000000	5.841778	0.487607	-7.410144	5.902215	0.103013	28.955187	9.741129	0.000000	0.357606	-0.535650	2.072795	0.664110	-0.712415	2.202345	0.587511	-1.302379	2.202345	0.408708	-1.302379	1.813696	0.332073	-1.092298	1.684146	0.204336	-0.829722	1.554597	2.554345	-6.059380	11.528266	0.000000	0.000000	28.137965	-1.887057	-14.912183	8.966275	-7.672885	55.927875	38.321232	42.358314	3.183529	2.229134	23.147156	-7.935712	92.112400	39.024856	60.249889	3.145167	-7.355624
0.040816	-1.828485	-3.068467	91.647236	0.203197	0.697563	0.909912	2.560585	-2.313288	-0.454253	3.724564	0.065006	19.679816	4.852197	0.000000	4.933268	0.264652	-4.829833	4.772336	0.083293	27.720174	5.830931	0.000000	0.379658	-0.482140	2.098555	0.705064	-0.641247	2.229714	0.623741	-1.172276	2.229714	0.433912	-1.172276	1.836235	0.352551	-0.983181	1.705076	0.216937	-0.746835	1.573916	2.711862	-5.454069	11.671532	0.000000	0.000000	28.226124	-1.663603	-14.087533	9.074905	-7.678689	56.774362	37.980693	44.217126	3.390430	1.916903	22.488607	-7.946256	91.500994	38.716071	59.406511	3.555297	-7.830758
0.061224	-1.541609	-2.954541	91.151171	0.203749	0.697917	0.908832	2.313240	-1.899745	2.459085	3.109938	0.054279	19.483421	2.322200	0.000000	4.179753	0.074213	-2.548394	3.828534	0.066821	26.641396	2.386922	0.000000	0.391833	-0.437416	2.127573	0.727672	-0.581763	2.260547	0.643742	-1.063532	2.260547	0.447826	-1.063532	1.861627	0.363856	-0.891978	1.728653	0.223893	-0.677557	1.595680	2.798821	-4.948132	11.832925	0.000000	0.000000	28.272985	-1.471896	-13.472944	9.163481	-7.684486	57.423584	37.688488	45.940956	3.519931	1.644915	22.009268	-7.913939	91.022206	38.470569	58.701542	3.922353	-7.983479
0.081633	-1.299588	-2.857276	90.779138	0.204194	0.698190	0.908065	2.110069	-1.554322	4.819456	2.620477	0.045736	19.319409	0.200937	0.000000	3.567408	-0.085918	-0.549908	3.055010	0.053320	25.708968	-0.617883	0.000000	0.395374	-0.400832	2.159163	0.734249	-0.533107	2.294111	0.649560	-0.974583	2.294111	0.451873	-0.974583	1.889268	0.367144	-0.817377	1.754320	0.225917	-0.620889	1.619373	2.824116	-4.534294	12.008619	0.000000	0.000000	28.283127	-1.310432	-13.049324	9.232757	-7.690477	57.887156	37.443655	47.534039	3.581560	1.414462	21.689965	-7.845532	90.663157	38.282258	58.124304	4.250203	-7.855938
0.102041	-1.099271	-2.775102	90.516822	0.204545	0.698390	0.907573	1.947161	-1.271485	6.671846	2.245141	0.039185	19.188267	-1.533768	0.000000	3.082406	-0.217955	1.181542	2.435965	0.042516	24.913005	-3.210464	0.000000	0.391527	-0.371747	2.192637	0.727105	-0.494424	2.329677	0.643240	-0.903866	2.329677	0.447476	-0.903866	1.918558	0.363572	-0.758067	1.781518	0.223719	-0.575836	1.644478	2.796639	-4.205278	12.194790	0.000000	0.000000	28.261128	-1.177705	-12.797578	9.283484	-7.696864	58.176691	37.245233	49.000610	3.584845	1.226837	21.511523	-7.747805	90.410970	38.145044	57.664113	4.542713	-7.490285
0.122449	-0.937510	-2.706449	90.349904	0.204819	0.698524	0.907320	1.820603	-1.045703	8.061241	1.972892	0.034433	19.090486	-2.904091	0.000000	2.710922	-0.324107	2.661873	1.955599	0.034132	24.243621	-5.417807	0.000000	0.381537	-0.349517	2.227307	0.708553	-0.464858	2.366514	0.626827	-0.849816	2.366514	0.436059	-0.849816	1.948894	0.354295	-0.712735	1.809687	0.218010	-0.541402	1.670480	2.725282	-3.953807	12.387614	0.000000	0.000000	28.211565	-1.072213	-12.698612	9.316416	-7.703847	58.303803	37.092258	50.344903	3.539314	1.083331	21.454766	-7.627529	90.252765	38.052836	57.310290	4.803751	-6.928670
0.142857	-0.811156	-2.649744	90.264069	0.205030	0.698601	0.907270	1.726484	-0.871442	9.032625	1.792691	0.031288	19.026556	-3.932209	0.000000	2.439130	-0.406585	3.907004	1.598112	0.027892	23.690932	-7.266893	0.000000	0.366649	-0.333499	2.262485	0.680904	-0.443554	2.403891	0.602368	-0.810869	2.403891	0.419043	-0.810869	1.979675	0.340470	-0.680071	1.838269	0.209503	-0.516590	1.696864	2.618938	-3.772607	12.583264	0.000000	0.000000	28.139017	-0.992449	-12.733335	9.332303	-7.711628	58.280105	36.983769	51.571152	3.454494	0.985236	21.500520	-7.491475	90.175663	37.999542	57.052153	5.037184	-6.213245
